# xmcd CD database file
#
# Track frame offsets:
#	150
#	14144
#	24907
#	31430
#	40999
#	54954
#	69784
#	81876
#	99797
#	107706
#	124762
#	141450
#	149894
#	155021
#	163275
#	179405
#	193738
#
# Disc length: 2834 seconds
#
# Revision: 0
# Processed by: cddbd v1.5.2PL0 Copyright (c) Steve Scherf et al.
# Submitted via: jetAudio 7
#
DISCID=f30b1011
DTITLE=Eden's Bridge  - Celtic Prayers And Worship
DYEAR=1900
DGENRE=World Music
TTITLE0=We Will Glorify
TTITLE1=Turn Your Eyes Upon Jesus
TTITLE2=Thou Art Worthy
TTITLE3=Surely The Presence
TTITLE4=Oh How He Loves You and Me
TTITLE5=More Precious Than Silver
TTITLE6=Majesty
TTITLE7=Listen To Our Hearts
TTITLE8=Let There Be Glory
TTITLE9=I Worship You
TTITLE10=He Is Exalted
TTITLE11=Great Is The Lord
TTITLE12=Gloriosa Et Beatissima Christi Martyr
TTITLE13=Glorify Thy Name
TTITLE14=Give Thanks
TTITLE15=Father I Adore You
TTITLE16=Emmanuel
EXTD=
EXTT0=
EXTT1=
EXTT2=
EXTT3=
EXTT4=
EXTT5=
EXTT6=
EXTT7=
EXTT8=
EXTT9=
EXTT10=
EXTT11=
EXTT12=
EXTT13=
EXTT14=
EXTT15=
EXTT16=
PLAYORDER=
